<svg xmlns="http://www.w3.org/2000/svg" viewBox="0 0 753 407" font-weight="normal" text-decoration="none" width="753px" xmlns:xlink="http://www.w3.org/1999/xlink" font-size="15" font-family="sans-serif" font-style="normal" version="1.1" height="407px"><title>キュラソーにおける平均最高・最低気温</title><defs><clipPath id="plot-sample-bounds-2"><rect x="75.8" width="601.4" y="0" height="385"></rect></clipPath><clipPath id="plot-sample-bounds-scaled-2"><rect x="758.2" width="6013.5" y="0" height="3850"></rect></clipPath></defs><g transform="scale(0.1)"><path d="M758,1417l17,1l16,1l17,1l16,-2l17,0l16,1l17,1l16,1l17,1l16,-1l16,-2l17,1l16,0l17,1l16,0l17,1l16,1l17,2l16,-1l17,2l16,0l17,-1l16,1l17,-2l16,1l17,0l16,-2l17,1l16,-1l17,1l16,1l16,-1l17,-1l16,-1l17,0l16,0l17,0l16,-1l17,-1l16,-1l17,1l16,0l17,1l16,0l17,0l16,-2l17,-1l16,-1l17,0l16,-1l16,-2l17,-1l16,0l17,-1l16,0l17,0l16,-1l17,2l16,-1l17,-1l16,-1l17,-1l16,0l17,1l16,-1l17,0l16,0l17,-1l16,0l17,-1l16,-2l16,-1l17,-1l16,-2l17,-2l16,-2l17,-1l16,-1l17,-1l16,-3l17,-2l16,-1l17,-2l16,0l17,0l16,0l17,-2l16,-2l17,-2l16,-2l17,-1l16,-1l16,-2l17,-2l16,-1l17,-3l16,-2l17,-1l16,-3l17,-2l16,-2l17,-2l16,-3l17,-1l16,-1l17,-1l16,-1l17,-1l16,-1l17,0l16,-1l16,-1l17,-2l16,-1l17,-2l16,-2l17,-4l16,-1l17,-1l16,-1l17,-2l16,0l17,-2l16,-2l17,-1l16,-1l17,-1l16,-1l17,-1l16,0l17,-1l16,-2l16,0l17,-1l16,-1l17,0l16,-2l17,-2l16,-1l17,-2l16,-1l17,-1l16,0l17,0l16,-2l17,-2l16,2l17,-1l16,0l17,0l16,-1l17,0l16,0l16,0l17,0l16,0l17,-1l16,0l17,0l16,0l17,0l16,0l17,0l16,0l17,0l16,0l17,0l16,0l17,1l16,0l17,2l16,1l16,1l17,2l16,2l17,0l16,1l17,-1l16,0l17,2l16,2l17,1l16,0l17,0l16,0l17,0l16,2l17,0l16,1l17,1l16,1l17,0l16,1l16,1l17,0l16,0l17,-2l16,0l17,0l16,1l17,0l16,-1l17,-1l16,-2l17,-2l16,0l17,0l16,-1l17,-1l16,-1l17,-2l16,-1l17,-1l16,-2l16,1l17,1l16,-1l17,-1l16,1l17,0l16,-1l17,1l16,-1l17,-1l16,0l17,0l16,0l17,0l16,1l17,1l16,-1l17,3l16,-1l16,1l17,0l16,2l17,1l16,1l17,1l16,0l17,0l16,0l17,0l16,1l17,0l16,-1l17,0l16,0l17,0l16,0l17,0l16,0l17,1l16,0l16,3l17,-1l16,0l17,3l16,1l17,-1l16,-1l17,1l16,-2l17,1l16,3l17,2l16,0l17,0l16,0l17,1l16,2l17,2l16,2l17,2l16,1l16,1l17,3l16,4l17,3l16,2l17,0l16,1l17,1l16,-1l17,1l16,-1l17,1l16,3l17,0l16,3l17,1l16,2l17,1l16,1l16,1l17,-2l16,-2l17,1l16,0l17,1l16,2l17,1l16,1l17,-1l16,2l17,1l16,1l17,0l16,-2l17,-1l16,1l17,1l16,1l17,1l16,0l16,3l17,1l16,1l17,2l16,0l17,1l16,1l17,2l16,2l17,1l16,1l17,2l16,2l17,2l16,1l17,0l16,1l17,1l16,1l17,2l16,0l16,0l17,1l16,3l17,3l16,1l17,1l16,0l17,1l16,2l17,3l16,1l17,1l16,1l17,1l16,0l17,-1l16,1l17,-1l16,1l16,2l17,1l16,0l17,1l16,0l17,0l16,1l17,0l16,0l17,-1l0,-130l-17,-2l-16,-1l-17,-1l-16,-1l-17,-3l-16,-1l-17,-1l-16,-3l-17,-1l-16,-2l-16,-2l-17,-1l-16,-2l-17,-2l-16,-1l-17,0l-16,-3l-17,-1l-16,-2l-17,-1l-16,-1l-17,-1l-16,-2l-17,-2l-16,0l-17,-1l-16,0l-17,-1l-16,-2l-16,-1l-17,0l-16,0l-17,-1l-16,-1l-17,-2l-16,0l-17,0l-16,0l-17,-1l-16,-1l-17,-2l-16,-1l-17,0l-16,0l-17,0l-16,0l-17,-2l-16,-2l-17,-1l-16,-1l-16,-2l-17,-1l-16,-1l-17,-3l-16,0l-17,-1l-16,-2l-17,-2l-16,-1l-17,-1l-16,-2l-17,-1l-16,-2l-17,-2l-16,-1l-17,-1l-16,-2l-17,-1l-16,-1l-17,-2l-16,-1l-16,0l-17,-1l-16,-1l-17,-1l-16,-2l-17,-1l-16,0l-17,0l-16,-1l-17,-1l-16,0l-17,0l-16,0l-17,0l-16,-1l-17,0l-16,0l-17,0l-16,-1l-16,0l-17,0l-16,0l-17,0l-16,0l-17,0l-16,0l-17,0l-16,0l-17,0l-16,0l-17,0l-16,0l-17,0l-16,0l-17,0l-16,0l-17,0l-16,0l-17,0l-16,0l-16,0l-17,0l-16,0l-17,0l-16,0l-17,0l-16,0l-17,0l-16,0l-17,0l-16,0l-17,1l-16,1l-17,0l-16,0l-17,1l-16,0l-17,0l-16,0l-17,0l-16,0l-16,1l-17,1l-16,0l-17,0l-16,0l-17,1l-16,1l-17,1l-16,0l-17,1l-16,1l-17,0l-16,1l-17,0l-16,1l-17,1l-16,2l-17,2l-16,1l-16,1l-17,2l-16,2l-17,0l-16,1l-17,2l-16,1l-17,0l-16,0l-17,2l-16,2l-17,1l-16,1l-17,1l-16,1l-17,1l-16,2l-17,1l-16,0l-17,2l-16,0l-16,0l-17,0l-16,0l-17,0l-16,1l-17,0l-16,-1l-17,0l-16,-1l-17,-1l-16,-2l-17,0l-16,-1l-17,-1l-16,-1l-17,-1l-16,-1l-17,0l-16,-1l-17,-1l-16,-1l-16,-1l-17,-1l-16,-1l-17,-2l-16,-1l-17,-1l-16,-1l-17,0l-16,-2l-17,0l-16,0l-17,-1l-16,0l-17,1l-16,0l-17,-1l-16,2l-17,-1l-16,1l-16,1l-17,1l-16,0l-17,1l-16,0l-17,1l-16,1l-17,2l-16,1l-17,2l-16,1l-17,1l-16,1l-17,2l-16,0l-17,2l-16,1l-17,2l-16,1l-17,0l-16,2l-16,1l-17,1l-16,1l-17,1l-16,1l-17,1l-16,1l-17,0l-16,1l-17,0l-16,1l-17,1l-16,2l-17,0l-16,2l-17,1l-16,1l-17,1l-16,0l-17,2l-16,1l-16,1l-17,1l-16,1l-17,1l-16,2l-17,0l-16,2l-17,2l-16,1l-17,1l-16,1l-17,2l-16,1l-17,2l-16,1l-17,1l-16,2l-17,2l-16,1l-16,2l-17,2l-16,1l-17,0l-16,1l-17,1l-16,1l-17,1l-16,0l-17,1l-16,0l-17,2l-16,0l-17,0l-16,2l-17,0l-16,0l-17,0l-16,1l-17,0l-16,1l-16,0l-17,1l-16,0l-17,0l-16,0l-17,1l-16,0l-17,0l-16,0l-17,0l-16,0l-17,0l-16,0l-17,0l-16,1l-17,0l-16,0l-17,0l-16,1l-17,0l-16,0l-16,0l-17,0l-16,0l-17,0l-16,0l-17,1l-16,1l-17,0l-16,0l-17,0l-16,1l-17,0l-16,0l-17,0l-16,0l-17,0l-16,0l-17,-1l-16,0l-16,0l-17,0l-16,0l-17,1l-16,0l-17,-1l-16,1l-17,0l-16,0l-17,0l-16,0l-17,0l-16,-1l-17,0l-16,0l-17,0l-16,-2l-17,-1l-16,-1l-17,0l-16,0l-16,0l-17,-1l-16,0l-17,-1l-16,-1l-17,-1l-16,-1l-17,-1l-16,-1l-17,-1Z" fill="#4646b9" fill-opacity="0.188" stroke="none"></path><path d="M758,1382l17,0l16,1l17,1l16,1l17,0l16,2l17,1l16,1l17,0l16,0l16,0l17,-1l16,0l17,0l16,0l17,1l16,1l17,1l16,0l17,0l16,1l17,-1l16,0l17,0l16,0l17,0l16,-1l17,-1l16,1l17,0l16,0l16,-1l17,0l16,-1l17,-1l16,-1l17,0l16,-1l17,0l16,0l17,0l16,0l17,0l16,0l17,-1l16,-1l17,-1l16,-2l17,-1l16,-1l16,-1l17,-1l16,-1l17,1l16,-1l17,-1l16,-1l17,1l16,-1l17,-2l16,0l17,0l16,0l17,-1l16,1l17,0l16,-1l17,-2l16,-2l17,0l16,-1l16,-2l17,-1l16,-1l17,-1l16,-1l17,-1l16,-1l17,0l16,-1l17,-1l16,-2l17,-1l16,0l17,-1l16,0l17,-1l16,0l17,-2l16,0l17,-1l16,-2l16,-1l17,-1l16,-2l17,-3l16,0l17,-1l16,-2l17,-1l16,-2l17,-2l16,-1l17,-2l16,-2l17,-1l16,-2l17,-2l16,0l17,-2l16,-2l16,-1l17,0l16,-2l17,-2l16,-1l17,-2l16,-2l17,-1l16,-1l17,-2l16,-1l17,0l16,0l17,-2l16,-1l17,-1l16,-1l17,0l16,0l17,0l16,0l16,0l17,0l16,-1l17,0l16,-1l17,0l16,0l17,-1l16,0l17,0l16,0l17,-1l16,0l17,-1l16,0l17,-1l16,0l17,0l16,0l17,0l16,0l16,-1l17,0l16,0l17,0l16,-1l17,0l16,0l17,-1l16,1l17,0l16,0l17,0l16,0l17,1l16,0l17,0l16,0l17,0l16,1l16,1l17,0l16,0l17,1l16,0l17,0l16,0l17,1l16,0l17,0l16,1l17,0l16,0l17,0l16,0l17,0l16,1l17,0l16,1l17,0l16,0l16,0l17,-1l16,0l17,-1l16,0l17,0l16,0l17,0l16,-1l17,-1l16,-1l17,0l16,0l17,0l16,-1l17,-1l16,-1l17,0l16,-1l17,0l16,-1l16,0l17,-1l16,-1l17,0l16,-1l17,0l16,0l17,-1l16,0l17,0l16,0l17,-1l16,-1l17,-1l16,-1l17,0l16,0l17,-1l16,-1l16,0l17,0l16,-1l17,-1l16,0l17,0l16,-1l17,0l16,-2l17,-1l16,1l17,0l16,-2l17,0l16,1l17,0l16,0l17,1l16,0l17,1l16,0l16,0l17,-1l16,0l17,0l16,0l17,0l16,0l17,0l16,2l17,0l16,1l17,2l16,1l17,1l16,0l17,0l16,2l17,2l16,1l17,2l16,0l16,1l17,2l16,2l17,2l16,0l17,0l16,0l17,0l16,1l17,1l16,0l17,1l16,3l17,2l16,2l17,2l16,2l17,0l16,0l16,0l17,0l16,2l17,1l16,0l17,1l16,1l17,2l16,2l17,1l16,2l17,1l16,1l17,0l16,0l17,1l16,1l17,2l16,2l17,1l16,1l16,2l17,1l16,2l17,1l16,0l17,0l16,1l17,2l16,1l17,1l16,2l17,1l16,1l17,0l16,2l17,1l16,1l17,0l16,1l17,2l16,1l16,1l17,1l16,1l17,2l16,0l17,1l16,1l17,1l16,2l17,1l16,1l17,2l16,1l17,2l16,1l17,0l16,1l17,1l16,1l16,2l17,1l16,1l17,2l16,1l17,1l16,1l17,0l16,1l17,-1l0,-71l-17,-2l-16,-1l-17,-1l-16,-2l-17,-1l-16,-1l-17,-1l-16,-3l-17,-1l-16,-1l-16,-1l-17,-2l-16,-1l-17,-1l-16,-1l-17,-1l-16,-1l-17,-1l-16,0l-17,-1l-16,0l-17,-1l-16,-1l-17,-1l-16,-1l-17,-1l-16,-1l-17,-1l-16,-1l-16,-1l-17,-2l-16,-2l-17,-1l-16,-2l-17,-2l-16,-1l-17,-1l-16,-1l-17,-1l-16,-1l-17,-2l-16,-1l-17,-1l-16,0l-17,-1l-16,-1l-17,-2l-16,0l-17,-2l-16,-1l-16,-2l-17,-1l-16,-1l-17,-2l-16,-1l-17,0l-16,-1l-17,-1l-16,-1l-17,-1l-16,0l-17,0l-16,0l-17,0l-16,0l-17,0l-16,-1l-17,0l-16,-1l-17,0l-16,-1l-16,0l-17,-1l-16,-1l-17,0l-16,-2l-17,0l-16,0l-17,-1l-16,-1l-17,-1l-16,0l-17,-1l-16,0l-17,0l-16,-1l-17,-1l-16,-1l-17,-2l-16,0l-16,-2l-17,0l-16,-1l-17,-1l-16,-1l-17,-1l-16,-1l-17,-1l-16,-1l-17,-1l-16,0l-17,-2l-16,0l-17,0l-16,1l-17,0l-16,0l-17,-1l-16,0l-17,0l-16,0l-16,2l-17,1l-16,1l-17,0l-16,0l-17,0l-16,2l-17,1l-16,2l-17,0l-16,1l-17,0l-16,2l-17,2l-16,0l-17,0l-16,1l-17,2l-16,1l-17,1l-16,1l-16,2l-17,0l-16,1l-17,0l-16,0l-17,2l-16,1l-17,1l-16,1l-17,0l-16,0l-17,0l-16,0l-17,0l-16,0l-17,0l-16,0l-17,0l-16,0l-16,0l-17,1l-16,0l-17,0l-16,0l-17,1l-16,2l-17,0l-16,0l-17,0l-16,0l-17,0l-16,0l-17,0l-16,0l-17,0l-16,0l-17,0l-16,0l-17,0l-16,0l-16,0l-17,0l-16,0l-17,0l-16,0l-17,0l-16,0l-17,0l-16,0l-17,0l-16,0l-17,-1l-16,0l-17,0l-16,0l-17,0l-16,-1l-17,0l-16,0l-17,0l-16,0l-16,0l-17,-1l-16,0l-17,0l-16,0l-17,0l-16,0l-17,0l-16,0l-17,0l-16,0l-17,0l-16,0l-17,0l-16,0l-17,0l-16,0l-17,0l-16,0l-16,0l-17,0l-16,0l-17,0l-16,0l-17,0l-16,0l-17,0l-16,0l-17,0l-16,0l-17,1l-16,0l-17,1l-16,0l-17,1l-16,0l-17,0l-16,1l-17,0l-16,0l-16,1l-17,0l-16,1l-17,1l-16,1l-17,1l-16,1l-17,0l-16,1l-17,2l-16,1l-17,2l-16,1l-17,2l-16,2l-17,1l-16,2l-17,2l-16,1l-17,2l-16,2l-16,1l-17,2l-16,1l-17,1l-16,2l-17,1l-16,2l-17,0l-16,2l-17,2l-16,0l-17,2l-16,2l-17,1l-16,0l-17,0l-16,1l-17,3l-16,0l-16,1l-17,0l-16,1l-17,0l-16,0l-17,1l-16,0l-17,1l-16,0l-17,1l-16,0l-17,2l-16,0l-17,0l-16,1l-17,2l-16,0l-17,1l-16,1l-17,0l-16,1l-16,0l-17,1l-16,0l-17,0l-16,1l-17,1l-16,2l-17,1l-16,0l-17,1l-16,1l-17,0l-16,2l-17,1l-16,1l-17,1l-16,0l-17,0l-16,1l-17,1l-16,0l-16,0l-17,0l-16,2l-17,1l-16,0l-17,1l-16,0l-17,1l-16,0l-17,1l-16,1l-17,1l-16,1l-17,0l-16,1l-17,0l-16,-1l-17,-1l-16,0l-16,0l-17,1l-16,0l-17,0l-16,1l-17,-1l-16,-1l-17,0l-16,0l-17,0l-16,0l-17,0l-16,-1l-17,0l-16,-2l-17,-1l-16,-1l-17,-2l-16,-1l-17,-1l-16,-1l-16,-2l-17,0l-16,-2l-17,-2l-16,-1l-17,-1l-16,-1l-17,0l-16,-1l-17,-2Z" fill="#4646b9" fill-opacity="0.188" stroke="none"></path><g clip-path="url(#plot-sample-bounds-scaled-2)"><path stroke-opacity="1.0" d="M758,1349l17,1l16,1l17,1l16,0l17,1l16,1l17,1l16,0l17,1l16,1l16,0l17,0l16,0l17,1l16,1l17,1l16,1l17,0l16,0l17,1l16,-1l17,0l16,0l17,0l16,0l17,0l16,0l17,-1l16,0l17,1l16,-1l16,1l17,0l16,-1l17,0l16,-1l17,1l16,-1l17,-1l16,0l17,0l16,0l17,0l16,-1l17,0l16,0l17,-1l16,0l17,-1l16,0l16,0l17,-1l16,-1l17,0l16,0l17,-1l16,0l17,0l16,0l17,-1l16,0l17,-1l16,0l17,-1l16,0l17,-1l16,0l17,-1l16,-1l17,-1l16,-1l16,-1l17,0l16,-1l17,-2l16,-1l17,-1l16,-1l17,-1l16,-2l17,-1l16,-1l17,-1l16,-1l17,-1l16,0l17,-2l16,-1l17,-1l16,-1l17,-1l16,-1l16,-2l17,-1l16,-2l17,-1l16,-1l17,-1l16,-2l17,-2l16,0l17,-2l16,-2l17,0l16,-2l17,-1l16,-1l17,-1l16,0l17,-1l16,-2l16,-1l17,-1l16,-1l17,-2l16,-1l17,-2l16,-2l17,-1l16,-1l17,-2l16,-1l17,0l16,-1l17,-2l16,-1l17,-1l16,0l17,-1l16,-1l17,-1l16,-2l16,0l17,0l16,-1l17,-1l16,-2l17,0l16,-1l17,-1l16,-1l17,-1l16,-1l17,0l16,-1l17,0l16,-1l17,0l16,0l17,-1l16,0l17,0l16,-1l16,-1l17,0l16,0l17,0l16,0l17,0l16,0l17,0l16,0l17,0l16,0l17,0l16,0l17,1l16,0l17,1l16,0l17,1l16,1l16,1l17,0l16,1l17,1l16,1l17,0l16,1l17,1l16,0l17,0l16,1l17,1l16,0l17,0l16,1l17,0l16,0l17,1l16,0l17,0l16,0l16,0l17,0l16,0l17,0l16,-1l17,0l16,0l17,0l16,-1l17,-2l16,0l17,-1l16,-1l17,0l16,-1l17,-1l16,-1l17,0l16,-1l17,-1l16,-1l16,-1l17,0l16,-1l17,0l16,-1l17,0l16,-1l17,0l16,-1l17,-1l16,0l17,0l16,-1l17,-1l16,1l17,-1l16,-1l17,-1l16,0l16,0l17,0l16,-1l17,0l16,0l17,0l16,0l17,0l16,-1l17,0l16,0l17,-1l16,0l17,-1l16,0l17,0l16,0l17,0l16,0l17,1l16,-1l16,1l17,0l16,0l17,0l16,1l17,0l16,-1l17,1l16,0l17,1l16,0l17,1l16,0l17,1l16,0l17,1l16,1l17,1l16,0l17,1l16,1l16,1l17,1l16,2l17,1l16,1l17,1l16,0l17,0l16,0l17,1l16,0l17,1l16,1l17,2l16,1l17,1l16,2l17,0l16,1l16,1l17,0l16,1l17,1l16,0l17,1l16,0l17,1l16,2l17,0l16,2l17,0l16,1l17,0l16,1l17,1l16,1l17,0l16,2l17,2l16,1l16,1l17,1l16,2l17,1l16,1l17,0l16,2l17,1l16,0l17,2l16,1l17,1l16,1l17,1l16,1l17,1l16,1l17,1l16,2l17,2l16,0l16,2l17,1l16,1l17,1l16,1l17,2l16,1l17,0l16,2l17,2l16,1l17,0l16,1l17,2l16,1l17,0l16,1l17,1l16,2l16,1l17,2l16,2l17,1l16,1l17,1l16,2l17,1l16,0l17,0" stroke-width="20" fill="none" stroke="#4646b9"></path></g><path d="M758,1190l17,1l16,1l17,1l16,1l17,-1l16,-1l17,0l16,0l17,-1l16,-1l16,0l17,0l16,-1l17,0l16,-2l17,1l16,-1l17,0l16,0l17,0l16,0l17,-1l16,0l17,0l16,0l17,-1l16,0l17,-2l16,-1l17,0l16,-1l16,-1l17,-2l16,-2l17,0l16,-2l17,-1l16,-2l17,0l16,1l17,0l16,0l17,-1l16,-1l17,-1l16,-1l17,-2l16,0l17,-2l16,-2l16,-1l17,-2l16,-1l17,1l16,-1l17,0l16,0l17,-1l16,0l17,0l16,-2l17,-2l16,0l17,-1l16,0l17,1l16,0l17,-1l16,0l17,-2l16,-2l16,-1l17,-1l16,0l17,-1l16,-2l17,0l16,-2l17,-2l16,-1l17,-2l16,-1l17,-1l16,0l17,-4l16,-1l17,-1l16,-2l17,-2l16,0l17,-2l16,-1l16,-1l17,0l16,0l17,-3l16,-2l17,0l16,-1l17,-2l16,-2l17,-1l16,-2l17,-1l16,0l17,0l16,0l17,-1l16,-1l17,-1l16,0l16,0l17,-1l16,-1l17,-1l16,-1l17,-2l16,-1l17,-1l16,-1l17,-2l16,0l17,0l16,0l17,-1l16,-3l17,0l16,0l17,-1l16,-2l17,-1l16,0l16,0l17,0l16,0l17,-1l16,-3l17,0l16,-1l17,-1l16,0l17,0l16,0l17,-2l16,0l17,0l16,-1l17,-2l16,0l17,-2l16,0l17,-1l16,0l16,-1l17,0l16,-1l17,1l16,-1l17,-1l16,-1l17,0l16,-1l17,-1l16,0l17,-2l16,1l17,-2l16,0l17,-1l16,0l17,-1l16,0l16,0l17,1l16,1l17,-1l16,1l17,-1l16,1l17,1l16,0l17,0l16,0l17,0l16,1l17,-2l16,1l17,-1l16,0l17,1l16,1l17,0l16,0l16,-1l17,0l16,-1l17,-2l16,1l17,-1l16,1l17,-1l16,0l17,0l16,-2l17,-2l16,-1l17,-1l16,-2l17,1l16,-1l17,-1l16,0l17,-2l16,-1l16,-1l17,0l16,0l17,-1l16,0l17,0l16,-1l17,-2l16,-1l17,0l16,0l17,0l16,0l17,0l16,0l17,0l16,-2l17,1l16,0l16,-1l17,0l16,0l17,-2l16,0l17,2l16,-1l17,-1l16,0l17,0l16,0l17,0l16,2l17,-1l16,0l17,1l16,0l17,0l16,0l17,2l16,0l16,1l17,1l16,0l17,1l16,1l17,0l16,0l17,1l16,0l17,3l16,1l17,3l16,2l17,2l16,1l17,2l16,3l17,2l16,1l17,3l16,3l16,1l17,1l16,4l17,1l16,2l17,1l16,2l17,1l16,0l17,2l16,0l17,2l16,3l17,0l16,3l17,1l16,2l17,3l16,3l16,0l17,1l16,1l17,0l16,1l17,2l16,1l17,2l16,2l17,2l16,1l17,1l16,3l17,1l16,1l17,1l16,2l17,2l16,1l17,2l16,2l16,3l17,1l16,2l17,2l16,2l17,2l16,3l17,1l16,0l17,1l16,1l17,2l16,3l17,1l16,2l17,1l16,-2l17,1l16,1l17,0l16,2l16,0l17,0l16,0l17,2l16,2l17,0l16,3l17,2l16,1l17,2l16,0l17,2l16,0l17,2l16,0l17,0l16,-1l17,2l16,1l16,1l17,3l16,1l17,-1l16,1l17,0l16,1l17,3l16,0l17,1l0,-149l-17,0l-16,0l-17,-1l-16,0l-17,-1l-16,-2l-17,-2l-16,-1l-17,0l-16,-1l-16,-1l-17,-1l-16,-3l-17,-1l-16,-1l-17,1l-16,-1l-17,-1l-16,0l-17,-2l-16,-1l-17,-1l-16,-2l-17,-1l-16,-1l-17,-2l-16,-1l-17,-1l-16,-2l-16,-2l-17,-1l-16,-1l-17,-2l-16,-2l-17,-2l-16,-2l-17,0l-16,-3l-17,-1l-16,-1l-17,-3l-16,-1l-17,-2l-16,-1l-17,-1l-16,-2l-17,-4l-16,-4l-17,-1l-16,-2l-16,0l-17,-2l-16,-3l-17,-2l-16,-1l-17,-3l-16,-2l-17,0l-16,-2l-17,-1l-16,-2l-17,-2l-16,-3l-17,-2l-16,-1l-17,-2l-16,-2l-17,-1l-16,-2l-17,-2l-16,-1l-16,0l-17,-2l-16,-1l-17,0l-16,-2l-17,-2l-16,-1l-17,0l-16,-2l-17,-3l-16,-2l-17,-2l-16,0l-17,-1l-16,0l-17,0l-16,-2l-17,-3l-16,0l-16,-2l-17,-2l-16,-1l-17,1l-16,-1l-17,-2l-16,-1l-17,0l-16,-2l-17,0l-16,-2l-17,-1l-16,-2l-17,0l-16,0l-17,-2l-16,-1l-17,0l-16,0l-17,-2l-16,-2l-16,0l-17,0l-16,-1l-17,1l-16,0l-17,0l-16,-1l-17,1l-16,2l-17,-2l-16,2l-17,2l-16,0l-17,0l-16,0l-17,1l-16,0l-17,2l-16,2l-17,1l-16,0l-16,2l-17,2l-16,0l-17,0l-16,0l-17,1l-16,2l-17,0l-16,3l-17,2l-16,1l-17,2l-16,2l-17,0l-16,0l-17,1l-16,2l-17,0l-16,0l-16,2l-17,1l-16,2l-17,0l-16,2l-17,1l-16,2l-17,2l-16,0l-17,1l-16,2l-17,0l-16,1l-17,0l-16,2l-17,0l-16,2l-17,0l-16,0l-17,3l-16,-2l-16,2l-17,0l-16,0l-17,-2l-16,2l-17,0l-16,-2l-17,2l-16,0l-17,-2l-16,0l-17,0l-16,-1l-17,0l-16,0l-17,0l-16,-2l-17,-2l-16,0l-17,0l-16,-1l-16,0l-17,-2l-16,0l-17,0l-16,0l-17,0l-16,0l-17,-1l-16,0l-17,0l-16,-2l-17,0l-16,2l-17,0l-16,0l-17,0l-16,1l-17,0l-16,0l-16,0l-17,2l-16,0l-17,1l-16,2l-17,-2l-16,2l-17,0l-16,2l-17,0l-16,0l-17,1l-16,2l-17,0l-16,2l-17,1l-16,0l-17,2l-16,2l-17,1l-16,2l-16,2l-17,0l-16,1l-17,0l-16,2l-17,2l-16,1l-17,0l-16,2l-17,1l-16,2l-17,0l-16,2l-17,0l-16,1l-17,2l-16,0l-17,2l-16,1l-17,0l-16,2l-16,1l-17,1l-16,0l-17,0l-16,1l-17,1l-16,1l-17,2l-16,0l-17,0l-16,1l-17,2l-16,0l-17,2l-16,0l-17,0l-16,3l-17,0l-16,1l-16,0l-17,1l-16,3l-17,1l-16,2l-17,1l-16,1l-17,1l-16,2l-17,1l-16,1l-17,1l-16,3l-17,1l-16,1l-17,2l-16,1l-17,1l-16,1l-17,1l-16,2l-16,1l-17,1l-16,1l-17,2l-16,0l-17,1l-16,2l-17,1l-16,1l-17,2l-16,0l-17,2l-16,0l-17,0l-16,1l-17,0l-16,1l-17,2l-16,1l-17,0l-16,0l-16,0l-17,2l-16,1l-17,0l-16,0l-17,1l-16,1l-17,0l-16,1l-17,0l-16,1l-17,1l-16,1l-17,0l-16,0l-17,1l-16,0l-17,0l-16,0l-16,0l-17,1l-16,-1l-17,1l-16,-1l-17,1l-16,1l-17,1l-16,-2l-17,-1l-16,0l-17,0l-16,2l-17,0l-16,-1l-17,1l-16,-2l-17,0l-16,-1l-17,0l-16,-1l-16,0l-17,-1l-16,-1l-17,0l-16,-1l-17,-1l-16,-1l-17,-1l-16,0l-17,-1Z" fill="#ba4545" fill-opacity="0.188" stroke="none"></path><path d="M758,1153l17,0l16,0l17,1l16,0l17,1l16,0l17,1l16,-1l17,0l16,-1l16,-1l17,0l16,-1l17,0l16,0l17,0l16,0l17,0l16,-2l17,-1l16,-1l17,0l16,0l17,0l16,-1l17,-1l16,-1l17,0l16,-1l17,0l16,-1l16,-1l17,-1l16,-1l17,0l16,-1l17,0l16,-1l17,0l16,0l17,0l16,-1l17,-1l16,-2l17,0l16,0l17,0l16,0l17,-1l16,-1l16,-1l17,0l16,-1l17,-1l16,0l17,-2l16,-1l17,-1l16,-1l17,-1l16,-2l17,-1l16,0l17,-1l16,-1l17,-1l16,-2l17,-1l16,-1l17,-1l16,-2l16,-1l17,-1l16,-1l17,-1l16,-2l17,-1l16,-2l17,-1l16,-2l17,-1l16,-1l17,-2l16,-1l17,-1l16,0l17,0l16,-1l17,-1l16,-2l17,0l16,-1l16,0l17,0l16,-1l17,-2l16,0l17,-1l16,0l17,-2l16,-1l17,0l16,-1l17,0l16,0l17,-1l16,0l17,-1l16,-2l17,-1l16,0l16,-1l17,0l16,-1l17,-1l16,-1l17,-1l16,-1l17,-1l16,-1l17,-2l16,0l17,-1l16,-2l17,-1l16,-1l17,-2l16,-2l17,0l16,-1l17,-1l16,-1l16,-2l17,-1l16,-1l17,-2l16,-1l17,0l16,-1l17,0l16,-1l17,-1l16,1l17,-1l16,-1l17,-1l16,0l17,0l16,-1l17,-2l16,0l17,0l16,-1l16,0l17,0l16,0l17,0l16,0l17,0l16,0l17,0l16,0l17,-1l16,0l17,0l16,0l17,0l16,-1l17,0l16,0l17,0l16,0l16,-1l17,0l16,0l17,0l16,0l17,0l16,0l17,0l16,0l17,0l16,0l17,0l16,0l17,-1l16,-1l17,0l16,0l17,0l16,0l17,0l16,0l16,0l17,0l16,-1l17,0l16,0l17,0l16,0l17,0l16,-1l17,-1l16,-1l17,0l16,0l17,0l16,-1l17,0l16,-2l17,-1l16,-1l17,0l16,-1l16,-1l17,0l16,-1l17,-2l16,0l17,0l16,0l17,-1l16,-1l17,-1l16,-1l17,0l16,-1l17,-1l16,-1l17,-1l16,-1l17,-1l16,0l16,-1l17,0l16,-1l17,-2l16,0l17,0l16,-1l17,-1l16,0l17,-1l16,-1l17,0l16,0l17,-1l16,1l17,0l16,1l17,0l16,-1l17,1l16,0l16,1l17,1l16,-1l17,0l16,1l17,1l16,0l17,1l16,2l17,1l16,1l17,1l16,1l17,3l16,0l17,1l16,2l17,2l16,2l17,2l16,1l16,2l17,2l16,1l17,1l16,1l17,1l16,1l17,1l16,1l17,2l16,0l17,1l16,2l17,2l16,1l17,2l16,2l17,1l16,1l16,2l17,2l16,0l17,1l16,2l17,1l16,2l17,1l16,2l17,3l16,1l17,2l16,2l17,0l16,2l17,1l16,3l17,1l16,2l17,2l16,3l16,1l17,3l16,3l17,2l16,3l17,1l16,2l17,2l16,1l17,3l16,2l17,1l16,3l17,1l16,2l17,2l16,1l17,2l16,0l17,1l16,1l16,2l17,1l16,1l17,2l16,2l17,1l16,1l17,3l16,1l17,1l16,2l17,1l16,0l17,1l16,1l17,1l16,0l17,2l16,1l16,0l17,1l16,2l17,0l16,1l17,0l16,1l17,1l16,0l17,2l0,-69l-17,0l-16,-1l-17,0l-16,-2l-17,-2l-16,0l-17,-2l-16,-2l-17,-1l-16,-1l-16,-2l-17,-1l-16,-1l-17,-2l-16,-2l-17,0l-16,-1l-17,-2l-16,-1l-17,-1l-16,-1l-17,-2l-16,-1l-17,-2l-16,-2l-17,-1l-16,-2l-17,-1l-16,-2l-16,-2l-17,-1l-16,-1l-17,-1l-16,-3l-17,-1l-16,-1l-17,-1l-16,-3l-17,-1l-16,-1l-17,-2l-16,-2l-17,-2l-16,-1l-17,-1l-16,-3l-17,-2l-16,-2l-17,-2l-16,-3l-16,-1l-17,-2l-16,-2l-17,-1l-16,-3l-17,-1l-16,-2l-17,-2l-16,-1l-17,-2l-16,-2l-17,-1l-16,-2l-17,-2l-16,0l-17,-1l-16,-2l-17,-2l-16,-1l-17,0l-16,-3l-16,0l-17,-1l-16,-2l-17,-2l-16,-1l-17,-2l-16,-2l-17,-1l-16,0l-17,-2l-16,-1l-17,-2l-16,0l-17,-2l-16,-1l-17,0l-16,-2l-17,-2l-16,-1l-16,0l-17,-2l-16,-2l-17,-1l-16,0l-17,-2l-16,-2l-17,-1l-16,-2l-17,0l-16,0l-17,-2l-16,-1l-17,0l-16,0l-17,0l-16,-2l-17,0l-16,0l-17,0l-16,0l-16,0l-17,0l-16,-1l-17,0l-16,1l-17,0l-16,0l-17,0l-16,2l-17,0l-16,0l-17,0l-16,1l-17,0l-16,2l-17,0l-16,0l-17,2l-16,0l-17,1l-16,2l-16,0l-17,2l-16,0l-17,1l-16,0l-17,2l-16,2l-17,0l-16,1l-17,2l-16,2l-17,0l-16,1l-17,2l-16,0l-17,2l-16,0l-17,1l-16,0l-16,2l-17,0l-16,1l-17,2l-16,0l-17,0l-16,2l-17,1l-16,0l-17,0l-16,0l-17,2l-16,0l-17,2l-16,0l-17,0l-16,1l-17,0l-16,0l-17,2l-16,0l-16,0l-17,0l-16,0l-17,0l-16,0l-17,0l-16,0l-17,0l-16,-2l-17,0l-16,0l-17,-1l-16,0l-17,0l-16,0l-17,-2l-16,0l-17,0l-16,0l-17,0l-16,0l-16,0l-17,0l-16,0l-17,0l-16,0l-17,0l-16,0l-17,-2l-16,0l-17,0l-16,0l-17,0l-16,0l-17,-1l-16,0l-17,0l-16,0l-17,0l-16,1l-16,0l-17,0l-16,2l-17,0l-16,2l-17,0l-16,0l-17,1l-16,0l-17,0l-16,0l-17,0l-16,0l-17,2l-16,0l-17,0l-16,0l-17,0l-16,0l-17,2l-16,0l-16,1l-17,0l-16,1l-17,1l-16,2l-17,1l-16,1l-17,1l-16,2l-17,1l-16,1l-17,1l-16,1l-17,1l-16,2l-17,2l-16,1l-17,1l-16,2l-17,0l-16,2l-16,2l-17,1l-16,1l-17,1l-16,2l-17,1l-16,2l-17,2l-16,1l-17,2l-16,2l-17,0l-16,1l-17,2l-16,1l-17,0l-16,1l-17,1l-16,1l-16,0l-17,2l-16,0l-17,1l-16,1l-17,1l-16,1l-17,0l-16,1l-17,0l-16,1l-17,2l-16,1l-17,1l-16,1l-17,3l-16,0l-17,1l-16,1l-17,2l-16,1l-16,0l-17,2l-16,2l-17,1l-16,2l-17,2l-16,1l-17,2l-16,1l-17,1l-16,0l-17,2l-16,1l-17,1l-16,1l-17,1l-16,1l-17,2l-16,0l-17,1l-16,1l-16,0l-17,2l-16,1l-17,0l-16,0l-17,2l-16,1l-17,1l-16,0l-17,0l-16,0l-17,0l-16,0l-17,1l-16,0l-17,0l-16,0l-17,0l-16,0l-16,1l-17,1l-16,0l-17,0l-16,0l-17,1l-16,0l-17,0l-16,0l-17,1l-16,0l-17,0l-16,0l-17,0l-16,0l-17,0l-16,0l-17,0l-16,0l-17,0l-16,0l-16,0l-17,0l-16,0l-17,0l-16,-1l-17,0l-16,0l-17,-1l-16,-1l-17,0Z" fill="#ba4545" fill-opacity="0.188" stroke="none"></path><g clip-path="url(#plot-sample-bounds-scaled-2)"><path stroke-opacity="1.0" d="M758,1119l17,1l16,0l17,0l16,1l17,0l16,0l17,1l16,0l17,0l16,0l16,-1l17,0l16,0l17,0l16,-1l17,1l16,-1l17,1l16,-1l17,0l16,0l17,0l16,-1l17,0l16,0l17,-1l16,-1l17,0l16,0l17,-1l16,-1l16,0l17,0l16,-1l17,-1l16,-1l17,-1l16,0l17,-1l16,0l17,0l16,0l17,-1l16,-1l17,-1l16,-1l17,0l16,-1l17,-1l16,-1l16,-1l17,-1l16,0l17,-1l16,-1l17,-1l16,-1l17,-1l16,0l17,-1l16,-1l17,-2l16,0l17,-1l16,-1l17,-1l16,-1l17,-1l16,-1l17,-1l16,-2l16,0l17,-2l16,-1l17,-1l16,-1l17,-2l16,-2l17,-1l16,-1l17,-1l16,-1l17,-1l16,-1l17,-2l16,-1l17,-1l16,0l17,-1l16,-2l17,-1l16,-1l16,0l17,-1l16,-1l17,-2l16,0l17,-1l16,-1l17,-2l16,-1l17,-1l16,-1l17,-1l16,-1l17,-1l16,0l17,-1l16,-1l17,-1l16,-1l16,0l17,-2l16,-1l17,-1l16,-1l17,-2l16,-1l17,-1l16,-1l17,-1l16,-1l17,-1l16,-1l17,0l16,-2l17,-2l16,-1l17,0l16,-1l17,-1l16,-1l16,-1l17,-1l16,-1l17,-2l16,-1l17,0l16,-1l17,-1l16,-1l17,-1l16,0l17,-1l16,0l17,-1l16,0l17,-1l16,-1l17,-1l16,-1l17,0l16,-1l16,-1l17,0l16,-1l17,0l16,0l17,0l16,-1l17,1l16,0l17,0l16,0l17,0l16,1l17,-1l16,0l17,1l16,0l17,0l16,0l16,0l17,1l16,0l17,1l16,0l17,0l16,0l17,0l16,0l17,1l16,0l17,0l16,0l17,0l16,0l17,-1l16,0l17,0l16,0l17,0l16,0l16,0l17,-1l16,-1l17,0l16,-1l17,0l16,-1l17,0l16,-1l17,-1l16,-1l17,-1l16,-1l17,0l16,-2l17,0l16,-2l17,0l16,-1l17,-1l16,-1l16,-1l17,0l16,-1l17,0l16,0l17,-1l16,-1l17,-1l16,-1l17,-1l16,-1l17,0l16,-1l17,-2l16,0l17,0l16,-1l17,0l16,0l16,-2l17,0l16,-2l17,0l16,0l17,0l16,-1l17,0l16,0l17,0l16,0l17,-2l16,0l17,0l16,0l17,0l16,0l17,0l16,2l17,0l16,0l16,0l17,0l16,1l17,0l16,0l17,2l16,0l17,0l16,2l17,0l16,1l17,2l16,0l17,2l16,0l17,2l16,2l17,1l16,1l17,2l16,2l16,1l17,2l16,1l17,1l16,1l17,2l16,1l17,1l16,1l17,2l16,0l17,1l16,2l17,2l16,2l17,1l16,2l17,1l16,1l16,2l17,0l16,2l17,1l16,2l17,1l16,1l17,2l16,1l17,3l16,1l17,2l16,2l17,1l16,2l17,2l16,1l17,2l16,2l17,1l16,3l16,2l17,2l16,2l17,3l16,2l17,2l16,2l17,1l16,2l17,2l16,1l17,3l16,1l17,2l16,2l17,1l16,1l17,2l16,1l17,0l16,2l16,1l17,1l16,1l17,2l16,1l17,1l16,2l17,2l16,0l17,2l16,1l17,2l16,0l17,1l16,2l17,1l16,1l17,0l16,2l16,1l17,1l16,1l17,1l16,2l17,1l16,0l17,1l16,1l17,1" stroke-width="20" fill="none" stroke="#ba4545"></path></g><g clip-path="url(#plot-sample-bounds-scaled-2)"><path stroke-opacity="1.0" d="M758,1291l17,1l16,2l17,1l16,1l17,2l16,2l17,1l16,1l17,1l16,1l16,1l17,1l16,1l17,1l16,2l17,1l16,1l17,1l16,0l17,1l16,0l17,0l16,0l17,0l16,0l17,0l16,0l17,0l16,0l17,0l16,0l16,0l17,0l16,0l17,-1l16,0l17,1l16,-1l17,-1l16,0l17,-1l16,0l17,-1l16,0l17,0l16,-1l17,-1l16,-1l17,-1l16,0l16,0l17,-1l16,0l17,-1l16,0l17,-1l16,-1l17,0l16,-1l17,0l16,-1l17,-1l16,-1l17,-1l16,-1l17,0l16,-1l17,-3l16,0l17,-2l16,-1l16,-1l17,-1l16,-1l17,-3l16,-1l17,-3l16,-1l17,-2l16,-3l17,-2l16,-2l17,-2l16,-2l17,-2l16,-1l17,-2l16,-1l17,-2l16,-2l17,-2l16,-3l16,-3l17,-3l16,-3l17,-3l16,-2l17,-2l16,-3l17,-4l16,-2l17,-3l16,-3l17,-2l16,-3l17,-1l16,-3l17,-2l16,-2l17,-2l16,-2l16,-3l17,-2l16,-3l17,-3l16,-3l17,-3l16,-5l17,-3l16,-3l17,-3l16,-3l17,-2l16,-2l17,-2l16,-2l17,-3l16,-1l17,-3l16,-1l17,-2l16,-2l16,-3l17,-1l16,-2l17,-2l16,-3l17,-2l16,-1l17,-3l16,-2l17,-1l16,-2l17,-2l16,0l17,-2l16,0l17,-1l16,-1l17,0l16,0l17,0l16,-1l16,-1l17,-1l16,0l17,-1l16,-1l17,0l16,0l17,0l16,1l17,0l16,0l17,1l16,1l17,1l16,1l17,1l16,1l17,2l16,0l16,3l17,2l16,1l17,1l16,3l17,0l16,0l17,2l16,2l17,1l16,2l17,1l16,1l17,0l16,0l17,1l16,1l17,1l16,1l17,1l16,0l16,0l17,-1l16,-1l17,-2l16,-1l17,0l16,0l17,-1l16,-1l17,-3l16,-2l17,-2l16,-1l17,-2l16,-2l17,-1l16,-3l17,-1l16,-2l17,-2l16,-2l16,0l17,-2l16,-1l17,-2l16,-1l17,-1l16,-1l17,-1l16,-3l17,-1l16,-1l17,-2l16,-1l17,-1l16,0l17,-1l16,-3l17,0l16,-2l16,1l17,-1l16,-1l17,-1l16,0l17,0l16,0l17,-1l16,-2l17,-1l16,1l17,-1l16,-1l17,-1l16,0l17,0l16,-1l17,0l16,1l17,1l16,-1l16,0l17,0l16,0l17,0l16,1l17,0l16,0l17,0l16,1l17,1l16,2l17,1l16,1l17,2l16,0l17,1l16,2l17,2l16,1l17,2l16,1l16,2l17,4l16,2l17,2l16,1l17,1l16,1l17,1l16,1l17,1l16,1l17,2l16,3l17,2l16,4l17,2l16,3l17,1l16,2l16,1l17,0l16,2l17,1l16,1l17,3l16,1l17,2l16,2l17,2l16,2l17,1l16,3l17,1l16,1l17,1l16,2l17,4l16,2l17,3l16,2l16,3l17,3l16,3l17,3l16,1l17,2l16,2l17,2l16,3l17,1l16,3l17,2l16,3l17,2l16,2l17,2l16,3l17,3l16,2l17,4l16,1l16,3l17,2l16,3l17,2l16,2l17,2l16,2l17,2l16,3l17,2l16,2l17,3l16,1l17,2l16,1l17,2l16,3l17,1l16,3l16,3l17,2l16,4l17,2l16,2l17,2l16,2l17,2l16,1l17,1" stroke-dasharray="10 20" stroke-width="10" fill="none" stroke="#4646b9"></path></g><g clip-path="url(#plot-sample-bounds-scaled-2)"><path stroke-opacity="1.0" d="M758,881l17,3l16,2l17,1l16,2l17,0l16,2l17,1l16,2l17,2l16,0l16,0l17,0l16,1l17,0l16,2l17,2l16,0l17,1l16,0l17,0l16,0l17,-1l16,0l17,0l16,0l17,-2l16,0l17,0l16,0l17,-2l16,-1l16,0l17,0l16,-2l17,-2l16,0l17,-1l16,-2l17,-2l16,0l17,-1l16,0l17,-2l16,-3l17,-2l16,-1l17,-4l16,-1l17,-4l16,-1l16,0l17,0l16,-2l17,-2l16,-1l17,-2l16,-2l17,0l16,-3l17,-1l16,-4l17,-1l16,-2l17,-2l16,-3l17,-2l16,-1l17,-2l16,-3l17,-2l16,-2l16,-1l17,-3l16,-2l17,-2l16,-3l17,-3l16,-2l17,-3l16,-2l17,-3l16,-4l17,-1l16,-3l17,-4l16,-1l17,-2l16,-3l17,-2l16,-3l17,-2l16,-2l16,-3l17,-3l16,-2l17,-3l16,-3l17,-4l16,-3l17,-3l16,-5l17,-3l16,-2l17,-3l16,-2l17,-3l16,-2l17,-2l16,-1l17,-4l16,-1l16,-4l17,-3l16,-3l17,-3l16,-4l17,-3l16,-3l17,-4l16,-3l17,-3l16,-2l17,-3l16,-2l17,-3l16,-3l17,-4l16,-1l17,-2l16,-3l17,-2l16,-1l16,-2l17,-3l16,0l17,-5l16,-2l17,0l16,-3l17,0l16,-2l17,-2l16,0l17,0l16,-1l17,0l16,-2l17,0l16,0l17,-2l16,-1l17,0l16,0l16,-2l17,2l16,-2l17,2l16,0l17,0l16,0l17,0l16,1l17,0l16,2l17,0l16,2l17,0l16,0l17,0l16,1l17,0l16,0l16,0l17,2l16,0l17,0l16,2l17,-2l16,2l17,0l16,0l17,0l16,0l17,1l16,0l17,-1l16,1l17,-1l16,0l17,0l16,0l17,-2l16,0l16,0l17,-3l16,-2l17,-2l16,-1l17,-2l16,-1l17,-2l16,-2l17,-3l16,-2l17,-3l16,-3l17,-2l16,-3l17,-2l16,-2l17,-3l16,-1l17,-2l16,-3l16,-2l17,-2l16,-1l17,-4l16,0l17,-1l16,-4l17,-1l16,-2l17,-3l16,-2l17,-1l16,-2l17,-2l16,-1l17,-2l16,-3l17,-2l16,-2l16,-1l17,-2l16,-2l17,-1l16,0l17,0l16,-2l17,-1l16,0l17,-2l16,-2l17,-1l16,-2l17,-2l16,0l17,0l16,0l17,0l16,0l17,-1l16,0l16,0l17,-2l16,0l17,0l16,0l17,2l16,1l17,2l16,2l17,1l16,0l17,2l16,2l17,1l16,2l17,1l16,4l17,0l16,3l17,2l16,3l16,2l17,5l16,1l17,4l16,1l17,2l16,1l17,2l16,2l17,3l16,2l17,1l16,4l17,3l16,3l17,2l16,5l17,1l16,2l16,3l17,2l16,3l17,2l16,3l17,2l16,3l17,3l16,4l17,5l16,3l17,5l16,3l17,4l16,3l17,3l16,3l17,4l16,3l17,5l16,3l16,7l17,5l16,5l17,6l16,5l17,3l16,5l17,4l16,5l17,5l16,3l17,5l16,5l17,5l16,3l17,5l16,3l17,5l16,3l17,4l16,3l16,3l17,4l16,3l17,5l16,3l17,5l16,3l17,4l16,5l17,5l16,3l17,3l16,3l17,2l16,3l17,2l16,3l17,4l16,3l16,2l17,3l16,3l17,3l16,4l17,1l16,4l17,1l16,2l17,3" stroke-dasharray="10 20" stroke-width="10" fill="none" stroke="#ba4545"></path></g><line stroke-opacity="0.25098039215686274" y1="2664.5" x1="750" y2="2664.5" x2="6780" stroke-width="10" fill="none" stroke="#000"></line></g><g><rect x="406.3" width="134.4" y="5" fill="#f00" fill-opacity="0.063" stroke="none" height="380"></rect><text text-anchor="middle" x="473.5" y="23.7">暑く</text></g><g><rect x="638.1" width="39.9" y="5" fill="#00f" fill-opacity="0.063" stroke="none" height="380"></rect></g><g><rect x="75" width="105.3" y="5" fill="#00f" fill-opacity="0.063" stroke="none" height="380"></rect><text text-anchor="middle" x="127.6" y="23.7">涼しく</text></g><g transform="scale(0.1)"></g><g stroke-opacity="0.072" stroke-width="1" fill="none" stroke="#000"><line stroke-opacity="0.12" y1="30" x1="126.1" y2="390" x2="126.1"></line><line stroke-opacity="0.12" y1="30" x1="173.9" y2="390" x2="173.9"></line><line stroke-opacity="0.12" y1="30" x1="224.9" y2="390" x2="224.9"></line><line stroke-opacity="0.12" y1="30" x1="274.4" y2="390" x2="274.4"></line><line stroke-opacity="0.12" y1="30" x1="325.4" y2="390" x2="325.4"></line><line stroke-opacity="0.12" y1="30" x1="374.9" y2="390" x2="374.9"></line><line stroke-opacity="0.12" y1="30" x1="425.9" y2="390" x2="425.9"></line><line stroke-opacity="0.12" y1="30" x1="477" y2="390" x2="477"></line><line stroke-opacity="0.12" y1="30" x1="526.4" y2="390" x2="526.4"></line><line stroke-opacity="0.12" y1="30" x1="577.5" y2="390" x2="577.5"></line><line stroke-opacity="0.12" y1="30" x1="626.9" y2="390" x2="626.9"></line><line y1="371.7" x1="72" y2="371.7" x2="681"></line><line y1="345.4" x1="72" y2="345.4" x2="681"></line><line y1="319" x1="72" y2="319" x2="681"></line><line y1="292.7" x1="72" y2="292.7" x2="681"></line><line y1="266.4" x1="72" y2="266.4" x2="681"></line><line y1="240" x1="72" y2="240" x2="681"></line><line y1="213.7" x1="72" y2="213.7" x2="681"></line><line y1="187.3" x1="72" y2="187.3" x2="681"></line><line y1="161" x1="72" y2="161" x2="681"></line><line y1="134.7" x1="72" y2="134.7" x2="681"></line><line y1="108.3" x1="72" y2="108.3" x2="681"></line><line y1="82" x1="72" y2="82" x2="681"></line><line y1="55.7" x1="72" y2="55.7" x2="681"></line></g><g><rect x="75" width="51.1" y="30" fill="#fff" fill-opacity="0.004" height="355"></rect><text text-anchor="middle" x="100.5" y="400.7" stroke="none">1月</text></g><g><rect x="126.1" width="47.8" y="30" fill="#fff" fill-opacity="0.004" height="355"></rect><text text-anchor="middle" x="150" y="400.7" stroke="none">2月</text></g><g><rect x="173.9" width="51.1" y="30" fill="#fff" fill-opacity="0.004" height="355"></rect><text text-anchor="middle" x="199.4" y="400.7" stroke="none">3月</text></g><g><rect x="224.9" width="49.4" y="30" fill="#fff" fill-opacity="0.004" height="355"></rect><text text-anchor="middle" x="249.6" y="400.7" stroke="none">4月</text></g><g><rect x="274.4" width="51.1" y="30" fill="#fff" fill-opacity="0.004" height="355"></rect><text text-anchor="middle" x="299.9" y="400.7" stroke="none">5月</text></g><g><rect x="325.4" width="49.4" y="30" fill="#fff" fill-opacity="0.004" height="355"></rect><text text-anchor="middle" x="350.1" y="400.7" stroke="none">6月</text></g><g><rect x="374.9" width="51.1" y="30" fill="#fff" fill-opacity="0.004" height="355"></rect><text text-anchor="middle" x="400.4" y="400.7" stroke="none">7月</text></g><g><rect x="425.9" width="51.1" y="30" fill="#fff" fill-opacity="0.004" height="355"></rect><text text-anchor="middle" x="451.5" y="400.7" stroke="none">8月</text></g><g><rect x="477" width="49.4" y="30" fill="#fff" fill-opacity="0.004" height="355"></rect><text text-anchor="middle" x="501.7" y="400.7" stroke="none">9月</text></g><g><rect x="526.4" width="51.1" y="30" fill="#fff" fill-opacity="0.004" height="355"></rect><text text-anchor="middle" x="552" y="400.7" stroke="none">10月</text></g><g><rect x="577.5" width="49.4" y="30" fill="#fff" fill-opacity="0.004" height="355"></rect><text text-anchor="middle" x="602.2" y="400.7" stroke="none">11月</text></g><g><rect x="626.9" width="51.1" y="30" fill="#fff" fill-opacity="0.004" height="355"></rect><text text-anchor="middle" x="652.5" y="400.7" stroke="none">12月</text></g><g fill="#666" stroke="none"><text text-anchor="end" x="71" y="376.7">-20°C</text><text x="682" y="376.7">-20°C</text><text text-anchor="end" x="71" y="350.4">-15°C</text><text x="682" y="350.4">-15°C</text><text text-anchor="end" x="71" y="324">-10°C</text><text x="682" y="324">-10°C</text><text text-anchor="end" x="71" y="297.7">-5°C</text><text x="682" y="297.7">-5°C</text><text text-anchor="end" x="71" y="271.4">0°C</text><text x="682" y="271.4">0°C</text><text text-anchor="end" x="71" y="245">5°C</text><text x="682" y="245">5°C</text><text text-anchor="end" x="71" y="218.7">10°C</text><text x="682" y="218.7">10°C</text><text text-anchor="end" x="71" y="192.4">15°C</text><text x="682" y="192.4">15°C</text><text text-anchor="end" x="71" y="166">20°C</text><text x="682" y="166">20°C</text><text text-anchor="end" x="71" y="139.7">25°C</text><text x="682" y="139.7">25°C</text><text text-anchor="end" x="71" y="113.3">30°C</text><text x="682" y="113.3">30°C</text><text text-anchor="end" x="71" y="87">35°C</text><text x="682" y="87">35°C</text><text text-anchor="end" x="71" y="60.7">40°C</text><text x="682" y="60.7">40°C</text></g><g font-weight="normal" text-decoration="none" font-size="15" font-family="sans-serif" font-style="normal"><g font-weight="normal" text-decoration="none" font-size="15" font-family="sans-serif" font-style="normal" stroke="none"><g stroke-linejoin="bevel" stroke-width="4" opacity="0.4" fill="#fff" stroke="#fff"><text text-anchor="middle" x="108.8" y="86.2">1月21日</text><text text-anchor="middle" x="108.8" y="104.8">29°C</text></g><text text-anchor="middle" x="108.8" y="86.2">1月21日</text><text text-anchor="middle" x="108.8" y="104.8">29°C</text></g></g><circle r="2" cx="108.8" cy="112" fill="#000" stroke="none"></circle><g font-weight="normal" text-decoration="none" font-size="15" font-family="sans-serif" font-style="normal"><g font-weight="normal" text-decoration="none" font-size="15" font-family="sans-serif" font-style="normal" stroke="none"><g stroke-linejoin="bevel" stroke-width="4" opacity="0.4" fill="#fff" stroke="#fff"><text text-anchor="middle" x="479.5" y="71">9月2日</text><text text-anchor="middle" x="479.5" y="89.5">32°C</text></g><text text-anchor="middle" x="479.5" y="71">9月2日</text><text text-anchor="middle" x="479.5" y="89.5">32°C</text></g></g><circle r="2" cx="479.5" cy="96.8" fill="#000" stroke="none"></circle><g font-weight="normal" text-decoration="none" font-size="15" font-family="sans-serif" font-style="normal"><g font-weight="normal" text-decoration="none" font-size="15" font-family="sans-serif" font-style="normal" stroke="none"><g opacity="0.4"><text text-anchor="middle" x="108.8" y="153.4" stroke-linejoin="bevel" stroke-width="4" fill="#fff" stroke="#fff">25°C</text></g><text text-anchor="middle" x="108.8" y="153.4">25°C</text></g></g><circle r="2" cx="108.8" cy="136.2" fill="#000" stroke="none"></circle><g font-weight="normal" text-decoration="none" font-size="15" font-family="sans-serif" font-style="normal"><g font-weight="normal" text-decoration="none" font-size="15" font-family="sans-serif" font-style="normal" stroke="none"><g opacity="0.4"><text text-anchor="middle" x="479.5" y="142.1" stroke-linejoin="bevel" stroke-width="4" fill="#fff" stroke="#fff">27°C</text></g><text text-anchor="middle" x="479.5" y="142.1">27°C</text></g></g><circle r="2" cx="479.5" cy="124.8" fill="#000" stroke="none"></circle><g font-weight="normal" text-decoration="none" font-size="15" font-family="sans-serif" font-style="normal"><g font-weight="normal" text-decoration="none" font-size="15" font-family="sans-serif" font-style="normal" stroke="none"><g stroke-linejoin="bevel" stroke-width="4" opacity="0.4" fill="#fff" stroke="#fff"><text text-anchor="middle" x="406.3" y="74">7月20日</text><text text-anchor="middle" x="406.3" y="92.6">32°C</text></g><text text-anchor="middle" x="406.3" y="74">7月20日</text><text text-anchor="middle" x="406.3" y="92.6">32°C</text></g></g><circle r="2" cx="406.3" cy="99.9" fill="#000" stroke="none"></circle><g font-weight="normal" text-decoration="none" font-size="15" font-family="sans-serif" font-style="normal"><g font-weight="normal" text-decoration="none" font-size="15" font-family="sans-serif" font-style="normal" stroke="none"><g stroke-linejoin="bevel" stroke-width="4" opacity="0.4" fill="#fff" stroke="#fff"><text text-anchor="middle" x="540.8" y="74">10月9日</text><text text-anchor="middle" x="540.8" y="92.6">32°C</text></g><text text-anchor="middle" x="540.8" y="74">10月9日</text><text text-anchor="middle" x="540.8" y="92.6">32°C</text></g></g><circle r="2" cx="540.8" cy="99.9" fill="#000" stroke="none"></circle><g font-weight="normal" text-decoration="none" font-size="15" font-family="sans-serif" font-style="normal"><g font-weight="normal" text-decoration="none" font-size="15" font-family="sans-serif" font-style="normal" stroke="none"><g stroke-linejoin="bevel" stroke-width="4" opacity="0.4" fill="#fff" stroke="#fff"><text text-anchor="middle" x="638.1" y="83.3">12月7日</text><text text-anchor="middle" x="638.1" y="101.8">30°C</text></g><text text-anchor="middle" x="638.1" y="83.3">12月7日</text><text text-anchor="middle" x="638.1" y="101.8">30°C</text></g></g><circle r="2" cx="638.1" cy="109.1" fill="#000" stroke="none"></circle><g font-weight="normal" text-decoration="none" font-size="15" font-family="sans-serif" font-style="normal"><g font-weight="normal" text-decoration="none" font-size="15" font-family="sans-serif" font-style="normal" stroke="none"><g stroke-linejoin="bevel" stroke-width="4" opacity="0.4" fill="#fff" stroke="#fff"><text text-anchor="middle" x="180.3" y="83.3">3月4日</text><text text-anchor="middle" x="180.3" y="101.8">30°C</text></g><text text-anchor="middle" x="180.3" y="83.3">3月4日</text><text text-anchor="middle" x="180.3" y="101.8">30°C</text></g></g><circle r="2" cx="180.3" cy="109.1" fill="#000" stroke="none"></circle><g font-weight="normal" text-decoration="none" font-size="15" font-family="sans-serif" font-style="normal"><g font-weight="normal" text-decoration="none" font-size="15" font-family="sans-serif" font-style="normal" stroke="none"><g opacity="0.4"><text text-anchor="middle" x="406.3" y="144.5" stroke-linejoin="bevel" stroke-width="4" fill="#fff" stroke="#fff">26°C</text></g><text text-anchor="middle" x="406.3" y="144.5">26°C</text></g></g><circle r="2" cx="406.3" cy="127.2" fill="#000" stroke="none"></circle><g font-weight="normal" text-decoration="none" font-size="15" font-family="sans-serif" font-style="normal"><g font-weight="normal" text-decoration="none" font-size="15" font-family="sans-serif" font-style="normal" stroke="none"><g opacity="0.4"><text text-anchor="middle" x="540.8" y="143.7" stroke-linejoin="bevel" stroke-width="4" fill="#fff" stroke="#fff">27°C</text></g><text text-anchor="middle" x="540.8" y="143.7">27°C</text></g></g><circle r="2" cx="540.8" cy="126.4" fill="#000" stroke="none"></circle><g font-weight="normal" text-decoration="none" font-size="15" font-family="sans-serif" font-style="normal"><g font-weight="normal" text-decoration="none" font-size="15" font-family="sans-serif" font-style="normal" stroke="none"><g opacity="0.4"><text text-anchor="middle" x="638.1" y="149.4" stroke-linejoin="bevel" stroke-width="4" fill="#fff" stroke="#fff">25°C</text></g><text text-anchor="middle" x="638.1" y="149.4">25°C</text></g></g><circle r="2" cx="638.1" cy="132.1" fill="#000" stroke="none"></circle><g font-weight="normal" text-decoration="none" font-size="15" font-family="sans-serif" font-style="normal"><g font-weight="normal" text-decoration="none" font-size="15" font-family="sans-serif" font-style="normal" stroke="none"><g opacity="0.4"><text text-anchor="middle" x="180.3" y="152.3" stroke-linejoin="bevel" stroke-width="4" fill="#fff" stroke="#fff">25°C</text></g><text text-anchor="middle" x="180.3" y="152.3">25°C</text></g></g><circle r="2" cx="180.3" cy="135" fill="#000" stroke="none"></circle></svg>